<svg xmlns="http://www.w3.org/2000/svg" viewBox="0 0 500 500"><defs><style>.a{fill:#8fa0ac;}.a,.b,.c,.d,.e{fill-rule:evenodd;}.b{fill:#fff;opacity:0.6;}.c{fill:#f8f8f8;opacity:0.5;}.d{fill:#edeef0;opacity:0.4;}.e{fill:#b7bbc2;opacity:0.39;}</style></defs><path class="a" d="M45.52,295.14a53.94,53.94,0,0,0,53.93,53.93h266.7a57.9,57.9,0,0,0,1.49-115.78,95.86,95.86,0,0,0-95.93-94.46,95.46,95.46,0,0,0-51.4,14.92,96.48,96.48,0,0,0-34.91,39.08,67.47,67.47,0,0,0-92,48.72A53.94,53.94,0,0,0,45.52,295.14ZM307.9,262.31a304.43,304.43,0,0,1,19.72,83A304.43,304.43,0,0,0,307.9,262.31Z"/><path class="b" d="M424.82,291.37a58.14,58.14,0,0,1-58.14,58.13H328.32a305.74,305.74,0,0,0-20.12-87.11c18.4-17.44,38.73-32.48,58.42-45.09a97.31,97.31,0,0,1,1.56,15.95,58.14,58.14,0,0,1,56.64,58.12"/><path class="c" d="M308.2,262.39a305.74,305.74,0,0,1,20.12,87.11h-79c11.11-33.63,33.08-62.71,58.84-87.11"/><path class="c" d="M271.86,138.4a96.37,96.37,0,0,1,94.76,78.9c-19.69,12.61-40,27.65-58.42,45.09-15.33-38.5-41.9-79.78-87.94-109a95.79,95.79,0,0,1,51.6-15"/><path class="d" d="M308.2,262.39c-25.76,24.4-47.73,53.48-58.84,87.11H133.26C150.6,314,162.45,261.71,150.19,188a68.33,68.33,0,0,1,9-.59,67.46,67.46,0,0,1,26,5.19,96.76,96.76,0,0,1,35.06-39.25c46,29.23,72.61,70.51,87.94,109"/><path class="e" d="M150.19,188c12.26,73.68.41,125.93-16.93,161.47H98.9a54.15,54.15,0,0,1-6.07-108A67.8,67.8,0,0,1,150.19,188"/></svg>