<svg xmlns="http://www.w3.org/2000/svg" viewBox="0 0 471.9 473.2"><defs><style>.a{isolation:isolate;}.b{fill:#416edd;}.c{opacity:0.6;}.c,.j{mix-blend-mode:multiply;}.d{fill:#706f6f;}.e{fill:#fff;}.f{fill:#878787;}.g{fill:#c6c6c6;}.h{fill:#dadada;}.i{fill:#f6f6f6;}.j{opacity:0.2;}</style></defs><g class="a"><path class="b" d="M411.49,13.07c0-.06,0-.11-.05-.16C158.75-33.63,12.83,60.65,12.83,60.65l0,0c-46.38,253.2,47.52,399.46,47.62,399.62h0c252.69,46.55,398.61-47.74,398.61-47.74l-.06,0C504.65,163.47,414.53,17.89,411.49,13.07Z"/><g class="c"><path class="d" d="M43,234.1s-24.36,108,17.45,226.19h0c38.42-69.36,69.28-133.2,93.81-189C84.56,245.49,43.41,235.05,43,234.1Z"/><path class="e" d="M428.89,239.11c-.37-1-41.53-11.4-111.28-37.18-19.49,44.34-35,83.62-47.1,116.54,55.68,24.6,119.35,55.53,188.53,94,45.61-249-44.51-394.63-47.55-399.45C453.22,131.22,428.9,239.15,428.89,239.11Z"/><path class="f" d="M43,234.1c.37,1,41.52,11.39,111.26,37.16,19.49-44.34,35-83.62,47.1-116.54-55.68-24.59-119.35-55.53-188.53-94C-33.54,314,60.49,460.3,60.49,460.3h0C18.68,342.08,43,234.05,43,234.1Z"/><path class="g" d="M459,412.59c-117.91,41.92-225.66,17.51-225.61,17.49,1-.36,11.37-41.65,37.09-111.61-44.21-19.53-83.38-35.07-116.21-47.21-24.53,55.83-55.39,119.67-93.81,189,252.69,46.55,398.61-47.74,398.61-47.74l-.06,0A.17.17,0,0,0,459,412.59Z"/><path class="h" d="M233.42,430.08S341.12,454.51,459,412.59a.17.17,0,0,1,0-.07c-69.18-38.52-132.85-69.45-188.53-94C244.79,388.43,234.37,429.72,233.42,430.08Z"/><path class="h" d="M238.48,43.15c-.95.36-11.37,41.64-37.08,111.57,44.21,19.54,83.39,35.08,116.21,47.21,24.53-55.81,55.39-119.65,93.8-189l.08.14c0-.06,0-.11-.05-.16C158.75-33.63,12.83,60.65,12.83,60.65l0,0v0C130.78,18.73,238.52,43.13,238.48,43.15Z"/><path class="i" d="M317.61,201.93c69.75,25.78,110.91,36.22,111.28,37.18,0,0,24.33-107.89-17.4-226l-.08-.14C373,82.28,342.14,146.12,317.61,201.93Z"/><path class="g" d="M238.48,43.15S130.78,18.73,12.87,60.64v0c69.18,38.52,132.85,69.46,188.53,94.05C227.11,84.79,237.53,43.51,238.48,43.15Z"/></g><g class="j"><path d="M337.93,192.64H175.08A44.22,44.22,0,0,0,131,236.71v12.55H382V236.71A44.21,44.21,0,0,0,337.93,192.64Z"/><path d="M294.44,318.43a7.1,7.1,0,0,1-7,7H225.28a7.1,7.1,0,0,1-7-7V263H131V362.2a11.08,11.08,0,0,0,11.09,11.09H370.9A11.08,11.08,0,0,0,382,362.2V263H294.44Z"/><path d="M232.28,263v48.44h48.45V263Zm24.22,35A10.51,10.51,0,1,1,267,287.49,10.46,10.46,0,0,1,256.5,298Z"/><path d="M256.5,151.2a12,12,0,0,0,12-12V108a11.83,11.83,0,0,0-12-12,12,12,0,0,0-12,12V139A12.08,12.08,0,0,0,256.5,151.2Z"/><path d="M200.76,167a12,12,0,0,0,16.93,0,12,12,0,0,0,0-16.92L195.8,128.15a12.33,12.33,0,0,0-17.22,0,12,12,0,0,0,0,16.92Z"/><path d="M303.49,170.46A11.65,11.65,0,0,0,312,167l21.89-21.89a12,12,0,0,0,0-16.92,12.33,12.33,0,0,0-17.22,0L295,150A12,12,0,0,0,295,167,12.14,12.14,0,0,0,303.49,170.46Z"/></g><path class="e" d="M317.93,172.64H155.08A44.22,44.22,0,0,0,111,216.71v12.55H362V216.71A44.21,44.21,0,0,0,317.93,172.64Z"/><path class="e" d="M274.44,298.43a7.1,7.1,0,0,1-7,7H205.28a7.1,7.1,0,0,1-7-7V243H111V342.2a11.08,11.08,0,0,0,11.09,11.09H350.9A11.08,11.08,0,0,0,362,342.2V243H274.44Z"/><path class="e" d="M212.28,243v48.44h48.45V243Zm24.22,35A10.51,10.51,0,1,1,247,267.49,10.46,10.46,0,0,1,236.5,278Z"/><path class="e" d="M236.5,131.2a12,12,0,0,0,12-12V88a11.83,11.83,0,0,0-12-12,12,12,0,0,0-12,12V119A12.08,12.08,0,0,0,236.5,131.2Z"/><path class="e" d="M180.76,147a12,12,0,0,0,16.93,0,12,12,0,0,0,0-16.92L175.8,108.15a12.33,12.33,0,0,0-17.22,0,12,12,0,0,0,0,16.92Z"/><path class="e" d="M283.49,150.46A11.65,11.65,0,0,0,292,147l21.89-21.89a12,12,0,0,0,0-16.92,12.33,12.33,0,0,0-17.22,0L275,130A12,12,0,0,0,275,147,12.14,12.14,0,0,0,283.49,150.46Z"/></g></svg>