<svg xmlns="http://www.w3.org/2000/svg" viewBox="0 0 471.9 473.2"><defs><style>.a{isolation:isolate;}.b{fill:#416edd;}.c{opacity:0.6;}.c,.j{mix-blend-mode:multiply;}.d{fill:#706f6f;}.e{fill:#fff;}.f{fill:#878787;}.g{fill:#c6c6c6;}.h{fill:#dadada;}.i{fill:#f6f6f6;}.j{opacity:0.2;}</style></defs><g class="a"><path class="b" d="M411.49,13.07c0-.06,0-.11-.05-.16C158.75-33.63,12.83,60.65,12.83,60.65l0,0c-46.38,253.2,47.52,399.46,47.62,399.62h0c252.69,46.55,398.61-47.74,398.61-47.74l-.06,0C504.65,163.47,414.53,17.89,411.49,13.07Z"/><g class="c"><path class="d" d="M43,234.1s-24.36,108,17.45,226.19h0c38.42-69.36,69.28-133.2,93.81-189C84.56,245.49,43.41,235.05,43,234.1Z"/><path class="e" d="M428.89,239.11c-.37-1-41.53-11.4-111.28-37.18-19.49,44.34-35,83.62-47.1,116.54,55.68,24.6,119.35,55.53,188.53,94,45.61-249-44.51-394.63-47.55-399.45C453.22,131.22,428.9,239.15,428.89,239.11Z"/><path class="f" d="M43,234.1c.37,1,41.52,11.39,111.26,37.16,19.49-44.34,35-83.62,47.1-116.54-55.68-24.59-119.35-55.53-188.53-94C-33.54,314,60.49,460.3,60.49,460.3h0C18.68,342.08,43,234.05,43,234.1Z"/><path class="g" d="M459,412.59c-117.91,41.92-225.66,17.51-225.61,17.49,1-.36,11.37-41.65,37.09-111.61-44.21-19.53-83.38-35.07-116.21-47.21-24.53,55.83-55.39,119.67-93.81,189,252.69,46.55,398.61-47.74,398.61-47.74l-.06,0A.17.17,0,0,0,459,412.59Z"/><path class="h" d="M233.42,430.08S341.12,454.51,459,412.59a.17.17,0,0,1,0-.07c-69.18-38.52-132.85-69.45-188.53-94C244.79,388.43,234.37,429.72,233.42,430.08Z"/><path class="h" d="M238.48,43.15c-.95.36-11.37,41.64-37.08,111.57,44.21,19.54,83.39,35.08,116.21,47.21,24.53-55.81,55.39-119.65,93.8-189l.08.14c0-.06,0-.11-.05-.16C158.75-33.63,12.83,60.65,12.83,60.65l0,0v0C130.78,18.73,238.52,43.13,238.48,43.15Z"/><path class="i" d="M317.61,201.93c69.75,25.78,110.91,36.22,111.28,37.18,0,0,24.33-107.89-17.4-226l-.08-.14C373,82.28,342.14,146.12,317.61,201.93Z"/><path class="g" d="M238.48,43.15S130.78,18.73,12.87,60.64v0c69.18,38.52,132.85,69.46,188.53,94.05C227.11,84.79,237.53,43.51,238.48,43.15Z"/></g><g class="j"><path d="M221.87,241.52a54.85,54.85,0,0,0,13.28,12.23,39.34,39.34,0,0,0,19.95,6.68c.48,0,.89.06,1.37.06s1.07,0,1.66-.05c26.76-1.16,47.57-32.18,47.66-58.28a49.17,49.17,0,1,0-98.34-.35c0,13.2,5.13,27.72,13.77,38.93C221.46,241,221.64,241.28,221.87,241.52Z"/><path d="M322.23,245.15a31.65,31.65,0,0,0,8.17,7.58,24.41,24.41,0,0,0,13.37,4.15c17,.06,30.33-18.92,30.39-35.33a30.3,30.3,0,1,0-60.59-.22,39.39,39.39,0,0,0,8.36,23.46A1.59,1.59,0,0,0,322.23,245.15Z"/><path d="M147.66,244.58a32.27,32.27,0,0,0,8.12,7.52,24.58,24.58,0,0,0,13.36,4.15c17.07.06,30.33-18.92,30.39-35.33a30.26,30.26,0,1,0-60.52-.21,39.68,39.68,0,0,0,8.3,23.45C147.42,244.28,147.54,244.46,147.66,244.58Z"/><path d="M374.18,253.23c-7.57,9.2-18.24,15.58-30.46,15.54a35.3,35.3,0,0,1-8.88-1.24A115.79,115.79,0,0,1,365,312.34l34,.12a6,6,0,0,0,6-5.92A61.35,61.35,0,0,0,374.18,253.23Z"/><path d="M178.24,266.93a34.57,34.57,0,0,1-9.14,1.21,36.29,36.29,0,0,1-19.76-6,44.18,44.18,0,0,1-10.62-9.69,61.33,61.33,0,0,0-31.09,53.06,6,6,0,0,0,5.93,6l34.05.12A118.1,118.1,0,0,1,178.24,266.93Z"/><path d="M294.16,255.88c-9.68,9.39-21.76,15.76-35.24,16.42-.86.07-1.6.08-2.49.08-.51,0-1,0-1.46-.06a51.2,51.2,0,0,1-26.28-8.59,64.48,64.48,0,0,1-10-8.11c-38.94,15.08-66.82,52.84-67,96.89a5.93,5.93,0,0,0,5.93,6l196.92.7h.12a5.92,5.92,0,0,0,6-5.93,6.34,6.34,0,0,0-.11-1.19C360.09,308.57,332.63,271.11,294.16,255.88Z"/></g><path class="e" d="M201.87,221.52a54.85,54.85,0,0,0,13.28,12.23,39.34,39.34,0,0,0,19.95,6.68c.48,0,.89.06,1.37.06s1.07,0,1.66-.05c26.76-1.16,47.57-32.18,47.66-58.28a49.17,49.17,0,1,0-98.34-.35c0,13.2,5.13,27.72,13.77,38.93C201.46,221,201.64,221.28,201.87,221.52Z"/><path class="e" d="M302.23,225.15a31.65,31.65,0,0,0,8.17,7.58,24.41,24.41,0,0,0,13.37,4.15c17,.06,30.33-18.92,30.39-35.33a30.3,30.3,0,1,0-60.59-.22,39.39,39.39,0,0,0,8.36,23.46A1.59,1.59,0,0,0,302.23,225.15Z"/><path class="e" d="M127.66,224.58a32.27,32.27,0,0,0,8.12,7.52,24.58,24.58,0,0,0,13.36,4.15c17.07.06,30.33-18.92,30.39-35.33a30.26,30.26,0,1,0-60.52-.21,39.68,39.68,0,0,0,8.3,23.45C127.42,224.28,127.54,224.46,127.66,224.58Z"/><path class="e" d="M354.18,233.23c-7.57,9.2-18.24,15.58-30.46,15.54a35.3,35.3,0,0,1-8.88-1.24A115.79,115.79,0,0,1,345,292.34l34,.12a6,6,0,0,0,6-5.92A61.35,61.35,0,0,0,354.18,233.23Z"/><path class="e" d="M158.24,246.93a34.57,34.57,0,0,1-9.14,1.21,36.29,36.29,0,0,1-19.76-6,44.18,44.18,0,0,1-10.62-9.69,61.33,61.33,0,0,0-31.09,53.06,6,6,0,0,0,5.93,6l34.05.12A118.1,118.1,0,0,1,158.24,246.93Z"/><path class="e" d="M274.16,235.88c-9.68,9.39-21.76,15.76-35.24,16.42-.86.07-1.6.08-2.49.08-.51,0-1,0-1.46-.06a51.2,51.2,0,0,1-26.28-8.59,64.48,64.48,0,0,1-10-8.11c-38.94,15.08-66.82,52.84-67,96.89a5.93,5.93,0,0,0,5.93,6l196.92.7h.12a5.92,5.92,0,0,0,6-5.93,6.34,6.34,0,0,0-.11-1.19C340.09,288.57,312.63,251.11,274.16,235.88Z"/></g></svg>