<svg xmlns="http://www.w3.org/2000/svg" viewBox="0 0 471.9 473.2"><defs><style>.a{isolation:isolate;}.b{fill:#416edd;}.c{opacity:0.6;}.c,.j{mix-blend-mode:multiply;}.d{fill:#706f6f;}.e{fill:#fff;}.f{fill:#878787;}.g{fill:#c6c6c6;}.h{fill:#dadada;}.i{fill:#f6f6f6;}.j{opacity:0.2;}</style></defs><g class="a"><path class="b" d="M411.49,13.07c0-.06,0-.11-.05-.16C158.75-33.63,12.83,60.65,12.83,60.65l0,0c-46.38,253.2,47.52,399.46,47.62,399.62h0c252.69,46.55,398.61-47.74,398.61-47.74l-.06,0C504.65,163.47,414.53,17.89,411.49,13.07Z"/><g class="c"><path class="d" d="M43,234.1s-24.36,108,17.45,226.19h0c38.42-69.36,69.28-133.2,93.81-189C84.56,245.49,43.41,235.05,43,234.1Z"/><path class="e" d="M428.89,239.11c-.37-1-41.53-11.4-111.28-37.18-19.49,44.34-35,83.62-47.1,116.54,55.68,24.6,119.35,55.53,188.53,94,45.61-249-44.51-394.63-47.55-399.45C453.22,131.22,428.9,239.15,428.89,239.11Z"/><path class="f" d="M43,234.1c.37,1,41.52,11.39,111.26,37.16,19.49-44.34,35-83.62,47.1-116.54-55.68-24.59-119.35-55.53-188.53-94C-33.54,314,60.49,460.3,60.49,460.3h0C18.68,342.08,43,234.05,43,234.1Z"/><path class="g" d="M459,412.59c-117.91,41.92-225.66,17.51-225.61,17.49,1-.36,11.37-41.65,37.09-111.61-44.21-19.53-83.38-35.07-116.21-47.21-24.53,55.83-55.39,119.67-93.81,189,252.69,46.55,398.61-47.74,398.61-47.74l-.06,0A.17.17,0,0,0,459,412.59Z"/><path class="h" d="M233.42,430.08S341.12,454.51,459,412.59a.17.17,0,0,1,0-.07c-69.18-38.52-132.85-69.45-188.53-94C244.79,388.43,234.37,429.72,233.42,430.08Z"/><path class="h" d="M238.48,43.15c-.95.36-11.37,41.64-37.08,111.57,44.21,19.54,83.39,35.08,116.21,47.21,24.53-55.81,55.39-119.65,93.8-189l.08.14c0-.06,0-.11-.05-.16C158.75-33.63,12.83,60.65,12.83,60.65l0,0v0C130.78,18.73,238.52,43.13,238.48,43.15Z"/><path class="i" d="M317.61,201.93c69.75,25.78,110.91,36.22,111.28,37.18,0,0,24.33-107.89-17.4-226l-.08-.14C373,82.28,342.14,146.12,317.61,201.93Z"/><path class="g" d="M238.48,43.15S130.78,18.73,12.87,60.64v0c69.18,38.52,132.85,69.46,188.53,94.05C227.11,84.79,237.53,43.51,238.48,43.15Z"/></g><g class="j"><path d="M255.77,107.86a149,149,0,1,0,149,149A149,149,0,0,0,255.77,107.86ZM271.1,311.14a27.71,27.71,0,0,1,8.25,20.12c0,15.52-12.05,27.22-28,27.22-15.27,0-27.23-11.78-27.23-26.81,0-16.25,11.46-28.05,27.23-28.05A27.08,27.08,0,0,1,271.1,311.14Zm51.46-99.63a52,52,0,0,1-17.71,39.17h0a185.61,185.61,0,0,1-18,13.81c-8.1,5.52-12.39,13.91-12.39,24.22V293H229.5l-.48-3.78c-2.38-19.05,1.76-32.51,12.65-41.15,2.3-1.76,4.58-3.39,6.84-5a101.12,101.12,0,0,0,12.83-10.21c6.08-6.55,10.18-12.65,12.07-18,2-6.38-3.48-14.87-9.28-17-9.82-3.51-21.26-.52-24.94,6.53a74,74,0,0,0-4.43,11.27c-.73,2.19-1.47,4.42-2.31,6.65l-1,2.81H190.51l-.7-3.48c-4-20.18,7-44.44,25.63-56.42,25.8-16,68-12.36,90.3,7.79A50.79,50.79,0,0,1,322.56,211.51Z"/></g><path class="e" d="M235.77,87.86a149,149,0,1,0,149,149A149,149,0,0,0,235.77,87.86ZM251.1,291.14a27.71,27.71,0,0,1,8.25,20.12c0,15.52-12.05,27.22-28,27.22-15.27,0-27.23-11.78-27.23-26.81,0-16.25,11.46-28.05,27.23-28.05A27.08,27.08,0,0,1,251.1,291.14Zm51.46-99.63a52,52,0,0,1-17.71,39.17h0a185.61,185.61,0,0,1-18,13.81c-8.1,5.52-12.39,13.91-12.39,24.22V273H209.5l-.48-3.78c-2.38-19,1.76-32.51,12.65-41.15,2.3-1.76,4.58-3.39,6.84-5a101.12,101.12,0,0,0,12.83-10.21c6.08-6.55,10.18-12.65,12.07-18,2-6.38-3.48-14.87-9.28-17-9.82-3.51-21.26-.52-24.94,6.53a74,74,0,0,0-4.43,11.27c-.73,2.19-1.47,4.42-2.31,6.65l-1,2.81H170.51l-.7-3.48c-4-20.18,7-44.44,25.63-56.42,25.8-16,68-12.36,90.3,7.79A50.79,50.79,0,0,1,302.56,191.51Z"/></g></svg>