<svg xmlns="http://www.w3.org/2000/svg" viewBox="0 0 471.9 473.2"><defs><style>.a{isolation:isolate;}.b{fill:#416edd;}.c{opacity:0.6;}.c,.j{mix-blend-mode:multiply;}.d{fill:#706f6f;}.e{fill:#fff;}.f{fill:#878787;}.g{fill:#c6c6c6;}.h{fill:#dadada;}.i{fill:#f6f6f6;}.j{opacity:0.2;}</style></defs><g class="a"><path class="b" d="M411.49,13.07c0-.06,0-.11-.05-.16C158.75-33.63,12.83,60.65,12.83,60.65l0,0c-46.38,253.2,47.52,399.46,47.62,399.62h0c252.69,46.55,398.61-47.74,398.61-47.74l-.06,0C504.65,163.47,414.53,17.89,411.49,13.07Z"/><g class="c"><path class="d" d="M43,234.1s-24.36,108,17.45,226.19h0c38.42-69.36,69.28-133.2,93.81-189C84.56,245.49,43.41,235.05,43,234.1Z"/><path class="e" d="M428.89,239.11c-.37-1-41.53-11.4-111.28-37.18-19.49,44.34-35,83.62-47.1,116.54,55.68,24.6,119.35,55.53,188.53,94,45.61-249-44.51-394.63-47.55-399.45C453.22,131.22,428.9,239.15,428.89,239.11Z"/><path class="f" d="M43,234.1c.37,1,41.52,11.39,111.26,37.16,19.49-44.34,35-83.62,47.1-116.54-55.68-24.59-119.35-55.53-188.53-94C-33.54,314,60.49,460.3,60.49,460.3h0C18.68,342.08,43,234.05,43,234.1Z"/><path class="g" d="M459,412.59c-117.91,41.92-225.66,17.51-225.61,17.49,1-.36,11.37-41.65,37.09-111.61-44.21-19.53-83.38-35.07-116.21-47.21-24.53,55.83-55.39,119.67-93.81,189,252.69,46.55,398.61-47.74,398.61-47.74l-.06,0A.17.17,0,0,0,459,412.59Z"/><path class="h" d="M233.42,430.08S341.12,454.51,459,412.59a.17.17,0,0,1,0-.07c-69.18-38.52-132.85-69.45-188.53-94C244.79,388.43,234.37,429.72,233.42,430.08Z"/><path class="h" d="M238.48,43.15c-.95.36-11.37,41.64-37.08,111.57,44.21,19.54,83.39,35.08,116.21,47.21,24.53-55.81,55.39-119.65,93.8-189l.08.14c0-.06,0-.11-.05-.16C158.75-33.63,12.83,60.65,12.83,60.65l0,0v0C130.78,18.73,238.52,43.13,238.48,43.15Z"/><path class="i" d="M317.61,201.93c69.75,25.78,110.91,36.22,111.28,37.18,0,0,24.33-107.89-17.4-226l-.08-.14C373,82.28,342.14,146.12,317.61,201.93Z"/><path class="g" d="M238.48,43.15S130.78,18.73,12.87,60.64v0c69.18,38.52,132.85,69.46,188.53,94.05C227.11,84.79,237.53,43.51,238.48,43.15Z"/></g><g class="j"><path d="M355.86,146.43a148.51,148.51,0,1,0,0,210A148.55,148.55,0,0,0,355.86,146.43Zm-48.11,139.5c0,20.81-14.95,39.47-38.19,47.86v20.36H235.48V337.87a71.27,71.27,0,0,1-37.32-14.68l-1-.75,10.88-40.72,2.19,1.71c7.16,5.59,35.2,19.28,49.24,14.53a9.89,9.89,0,0,0,6.85-7.33c2-8.34-9.71-14-24.51-21.24C220.51,259,194,246.08,194,217c0-20.81,15-39.48,38.19-47.87v-20.4h34.08V165a71.21,71.21,0,0,1,37.29,14.72l1,.74-.32,1.19c-3.25,12.27-6.53,24.58-9.82,36.85l-.72,2.68-2.18-1.71c-7.16-5.59-35.2-19.29-49.24-14.55a9.87,9.87,0,0,0-6.85,7.32c-2,8.36,9.71,14.06,24.52,21.28C281.23,243.94,307.75,256.87,307.75,285.93Z"/></g><path class="e" d="M340.86,131.43a148.51,148.51,0,1,0,0,210A148.55,148.55,0,0,0,340.86,131.43Zm-48.11,139.5c0,20.81-14.95,39.47-38.19,47.86v20.36H220.48V322.87a71.27,71.27,0,0,1-37.32-14.68l-1-.75,10.88-40.72,2.19,1.71c7.16,5.59,35.2,19.28,49.24,14.53a9.89,9.89,0,0,0,6.85-7.33c2-8.34-9.71-14-24.51-21.24C205.51,244,179,231.08,179,202c0-20.81,15-39.48,38.19-47.87v-20.4h34.08V150a71.21,71.21,0,0,1,37.29,14.72l1,.74-.32,1.19c-3.25,12.27-6.53,24.58-9.82,36.85l-.72,2.68-2.18-1.71c-7.16-5.59-35.2-19.29-49.24-14.55a9.87,9.87,0,0,0-6.85,7.32c-2,8.36,9.71,14.06,24.52,21.28C266.23,228.94,292.75,241.87,292.75,270.93Z"/></g></svg>