<svg xmlns="http://www.w3.org/2000/svg" viewBox="0 0 471.9 473.2"><defs><style>.a{isolation:isolate;}.b{fill:#416edd;}.c{opacity:0.6;}.c,.j{mix-blend-mode:multiply;}.d{fill:#706f6f;}.e{fill:#fff;}.f{fill:#878787;}.g{fill:#c6c6c6;}.h{fill:#dadada;}.i{fill:#f6f6f6;}.j{opacity:0.2;}</style></defs><g class="a"><path class="b" d="M411.49,13.07c0-.06,0-.11-.05-.16C158.75-33.63,12.83,60.65,12.83,60.65l0,0c-46.38,253.2,47.52,399.46,47.62,399.62h0c252.69,46.55,398.61-47.74,398.61-47.74l-.06,0C504.65,163.47,414.53,17.89,411.49,13.07Z"/><g class="c"><path class="d" d="M43,234.1s-24.36,108,17.45,226.19h0c38.42-69.36,69.28-133.2,93.81-189C84.56,245.49,43.41,235.05,43,234.1Z"/><path class="e" d="M428.89,239.11c-.37-1-41.53-11.4-111.28-37.18-19.49,44.34-35,83.62-47.1,116.54,55.68,24.6,119.35,55.53,188.53,94,45.61-249-44.51-394.63-47.55-399.45C453.22,131.22,428.9,239.15,428.89,239.11Z"/><path class="f" d="M43,234.1c.37,1,41.52,11.39,111.26,37.16,19.49-44.34,35-83.62,47.1-116.54-55.68-24.59-119.35-55.53-188.53-94C-33.54,314,60.49,460.3,60.49,460.3h0C18.68,342.08,43,234.05,43,234.1Z"/><path class="g" d="M459,412.59c-117.91,41.92-225.66,17.51-225.61,17.49,1-.36,11.37-41.65,37.09-111.61-44.21-19.53-83.38-35.07-116.21-47.21-24.53,55.83-55.39,119.67-93.81,189,252.69,46.55,398.61-47.74,398.61-47.74l-.06,0A.17.17,0,0,0,459,412.59Z"/><path class="h" d="M233.42,430.08S341.12,454.51,459,412.59a.17.17,0,0,1,0-.07c-69.18-38.52-132.85-69.45-188.53-94C244.79,388.43,234.37,429.72,233.42,430.08Z"/><path class="h" d="M238.48,43.15c-.95.36-11.37,41.64-37.08,111.57,44.21,19.54,83.39,35.08,116.21,47.21,24.53-55.81,55.39-119.65,93.8-189l.08.14c0-.06,0-.11-.05-.16C158.75-33.63,12.83,60.65,12.83,60.65l0,0v0C130.78,18.73,238.52,43.13,238.48,43.15Z"/><path class="i" d="M317.61,201.93c69.75,25.78,110.91,36.22,111.28,37.18,0,0,24.33-107.89-17.4-226l-.08-.14C373,82.28,342.14,146.12,317.61,201.93Z"/><path class="g" d="M238.48,43.15S130.78,18.73,12.87,60.64v0c69.18,38.52,132.85,69.46,188.53,94.05C227.11,84.79,237.53,43.51,238.48,43.15Z"/></g><g class="j"><path d="M185.73,233a68.45,68.45,0,0,0,16.5,15.22A48.93,48.93,0,0,0,227,256.48c.59,0,1.11.08,1.7.08a20.45,20.45,0,0,0,2.07-.07c33.27-1.43,59.13-40,59.24-72.44a61.13,61.13,0,1,0-122.25-.44c-.06,16.41,6.38,34.47,17.12,48.4A12,12,0,0,0,185.73,233Z"/><path d="M310.48,237.49a39.55,39.55,0,0,0,10.17,9.42,30.27,30.27,0,0,0,16.61,5.16c21.14.08,37.71-23.52,37.78-43.92a37.66,37.66,0,1,0-75.32-.27c0,9.83,3.85,20.79,10.4,29.16A2,2,0,0,0,310.48,237.49Z"/><path d="M375.07,247.54c-9.42,11.43-22.67,19.36-37.86,19.31a43.51,43.51,0,0,1-11-1.54A143.79,143.79,0,0,1,363.65,321l42.21.15a7.39,7.39,0,0,0,7.42-7.37A76.25,76.25,0,0,0,375.07,247.54Z"/><path d="M275.6,250.83c-12,11.67-27.06,19.6-43.82,20.41-1.06.09-2,.1-3.09.1-.63,0-1.22,0-1.81-.07a63.83,63.83,0,0,1-32.68-10.68,80.85,80.85,0,0,1-12.48-10.09C133.32,269.25,98.66,316.19,98.46,371a7.36,7.36,0,0,0,7.36,7.42l244.81.88h.14a7.35,7.35,0,0,0,7.42-7.36,9.54,9.54,0,0,0-.14-1.48C357.56,316.34,323.41,269.77,275.6,250.83Z"/></g><path class="e" d="M165.73,213a68.45,68.45,0,0,0,16.5,15.22A48.93,48.93,0,0,0,207,236.48c.59,0,1.11.08,1.7.08a20.45,20.45,0,0,0,2.07-.07c33.27-1.43,59.13-40,59.24-72.44a61.13,61.13,0,1,0-122.25-.44c-.06,16.41,6.38,34.47,17.12,48.4A12,12,0,0,0,165.73,213Z"/><path class="e" d="M290.48,217.49a39.55,39.55,0,0,0,10.17,9.42,30.27,30.27,0,0,0,16.61,5.16c21.14.08,37.71-23.52,37.78-43.92a37.66,37.66,0,1,0-75.32-.27c0,9.83,3.85,20.79,10.4,29.16A2,2,0,0,0,290.48,217.49Z"/><path class="e" d="M355.07,227.54c-9.42,11.43-22.67,19.36-37.86,19.31a43.51,43.51,0,0,1-11-1.54A143.79,143.79,0,0,1,343.65,301l42.21.15a7.39,7.39,0,0,0,7.42-7.37A76.25,76.25,0,0,0,355.07,227.54Z"/><path class="e" d="M255.6,230.83c-12,11.67-27.06,19.6-43.82,20.41-1.06.09-2,.1-3.09.1-.63,0-1.22,0-1.81-.07a63.83,63.83,0,0,1-32.68-10.68,80.85,80.85,0,0,1-12.48-10.09C113.32,249.25,78.66,296.19,78.46,351a7.36,7.36,0,0,0,7.36,7.42l244.81.88h.14a7.35,7.35,0,0,0,7.42-7.36,9.54,9.54,0,0,0-.14-1.48C337.56,296.34,303.41,249.77,255.6,230.83Z"/></g></svg>