<svg xmlns="http://www.w3.org/2000/svg" viewBox="0 0 471.9 473.2"><defs><style>.a{isolation:isolate;}.b{fill:#09c1d1;}.c{opacity:0.6;}.c,.j{mix-blend-mode:multiply;}.d{fill:#706f6f;}.e{fill:#fff;}.f{fill:#878787;}.g{fill:#c6c6c6;}.h{fill:#dadada;}.i{fill:#f6f6f6;}.j{opacity:0.2;}</style></defs><g class="a"><path class="b" d="M411.49,13.07c0-.06,0-.11-.05-.16C158.75-33.63,12.83,60.65,12.83,60.65l0,0c-46.38,253.2,47.52,399.46,47.62,399.62h0c252.69,46.55,398.61-47.74,398.61-47.74l-.06,0C504.65,163.47,414.53,17.89,411.49,13.07Z"/><g class="c"><path class="d" d="M43,234.1s-24.36,108,17.45,226.19h0c38.42-69.36,69.28-133.2,93.81-189C84.56,245.49,43.41,235.05,43,234.1Z"/><path class="e" d="M428.89,239.11c-.37-1-41.53-11.4-111.28-37.18-19.49,44.34-35,83.62-47.1,116.54,55.68,24.6,119.35,55.53,188.53,94,45.61-249-44.51-394.63-47.55-399.45C453.22,131.22,428.9,239.15,428.89,239.11Z"/><path class="f" d="M43,234.1c.37,1,41.52,11.39,111.26,37.16,19.49-44.34,35-83.62,47.1-116.54-55.68-24.59-119.35-55.53-188.53-94C-33.54,314,60.49,460.3,60.49,460.3h0C18.68,342.08,43,234.05,43,234.1Z"/><path class="g" d="M459,412.59c-117.91,41.92-225.66,17.51-225.61,17.49,1-.36,11.37-41.65,37.09-111.61-44.21-19.53-83.38-35.07-116.21-47.21-24.53,55.83-55.39,119.67-93.81,189,252.69,46.55,398.61-47.74,398.61-47.74l-.06,0A.17.17,0,0,0,459,412.59Z"/><path class="h" d="M233.42,430.08S341.12,454.51,459,412.59a.17.17,0,0,1,0-.07c-69.18-38.52-132.85-69.45-188.53-94C244.79,388.43,234.37,429.72,233.42,430.08Z"/><path class="h" d="M238.48,43.15c-.95.36-11.37,41.64-37.08,111.57,44.21,19.54,83.39,35.08,116.21,47.21,24.53-55.81,55.39-119.65,93.8-189l.08.14c0-.06,0-.11-.05-.16C158.75-33.63,12.83,60.65,12.83,60.65l0,0v0C130.78,18.73,238.52,43.13,238.48,43.15Z"/><path class="i" d="M317.61,201.93c69.75,25.78,110.91,36.22,111.28,37.18,0,0,24.33-107.89-17.4-226l-.08-.14C373,82.28,342.14,146.12,317.61,201.93Z"/><path class="g" d="M238.48,43.15S130.78,18.73,12.87,60.64v0c69.18,38.52,132.85,69.46,188.53,94.05C227.11,84.79,237.53,43.51,238.48,43.15Z"/></g><g class="j"><path d="M166.86,216.3H117.52a8.14,8.14,0,0,0-8.22,8.22V356.08a8.14,8.14,0,0,0,8.22,8.22h49.34a8.13,8.13,0,0,0,8.22-8.22V224.52A8.13,8.13,0,0,0,166.86,216.3Z"/><path d="M404.74,231.88c0-13.4-9.2-27-26.77-27H298.31c11.38-20.36,14.73-49,6.82-69.94-5.81-15.41-16.92-24.4-31.29-25.31l-.23,0a17.22,17.22,0,0,0-18.22,15.77c-2,20.78-11.16,57.53-24.2,70.58-11,11-20.39,15.58-36,23.21-2.26,1.1-4.72,2.3-7.33,3.6.05.57.07,1.13.07,1.71V354.74l5.57,1.91c25.73,8.87,48,16.52,81.94,16.52h64.41c17.57,0,26.77-13.57,26.77-27a29,29,0,0,0-2.41-11.61A25.43,25.43,0,0,0,379,326.42a27.65,27.65,0,0,0,6.68-18.32,29.1,29.1,0,0,0-2.4-11.59C397.4,294.07,404.75,282,404.75,270a27.89,27.89,0,0,0-7.3-19.05A28,28,0,0,0,404.74,231.88Z"/></g><path class="e" d="M146.86,196.3H97.52a8.14,8.14,0,0,0-8.22,8.22V336.08a8.14,8.14,0,0,0,8.22,8.22h49.34a8.13,8.13,0,0,0,8.22-8.22V204.52A8.13,8.13,0,0,0,146.86,196.3Z"/><path class="e" d="M384.74,211.88c0-13.4-9.2-27-26.77-27H278.31c11.38-20.36,14.73-49,6.82-69.94-5.81-15.41-16.92-24.4-31.29-25.31l-.23,0a17.22,17.22,0,0,0-18.22,15.77c-2,20.78-11.16,57.53-24.2,70.58-11,11-20.39,15.58-36,23.21-2.26,1.1-4.72,2.3-7.33,3.6.05.57.07,1.13.07,1.71V334.74l5.57,1.91c25.73,8.87,48,16.52,81.94,16.52h64.41c17.57,0,26.77-13.57,26.77-27a29,29,0,0,0-2.41-11.61A25.43,25.43,0,0,0,359,306.42a27.65,27.65,0,0,0,6.68-18.32,29.1,29.1,0,0,0-2.4-11.59C377.4,274.07,384.75,262,384.75,250a27.89,27.89,0,0,0-7.3-19.05A28,28,0,0,0,384.74,211.88Z"/></g></svg>