<svg xmlns="http://www.w3.org/2000/svg" viewBox="0 0 471.9 473.2"><defs><style>.a{isolation:isolate;}.b{fill:#09c1d1;}.c{opacity:0.6;}.c,.j{mix-blend-mode:multiply;}.d{fill:#706f6f;}.e{fill:#fff;}.f{fill:#878787;}.g{fill:#c6c6c6;}.h{fill:#dadada;}.i{fill:#f6f6f6;}.j{opacity:0.2;}</style></defs><g class="a"><path class="b" d="M411.49,13.07c0-.06,0-.11-.05-.16C158.75-33.63,12.83,60.65,12.83,60.65l0,0c-46.38,253.2,47.52,399.46,47.62,399.62h0c252.69,46.55,398.61-47.74,398.61-47.74l-.06,0C504.65,163.47,414.53,17.89,411.49,13.07Z"/><g class="c"><path class="d" d="M43,234.1s-24.36,108,17.45,226.19h0c38.42-69.36,69.28-133.2,93.81-189C84.56,245.49,43.41,235.05,43,234.1Z"/><path class="e" d="M428.89,239.11c-.37-1-41.53-11.4-111.28-37.18-19.49,44.34-35,83.62-47.1,116.54,55.68,24.6,119.35,55.53,188.53,94,45.61-249-44.51-394.63-47.55-399.45C453.22,131.22,428.9,239.15,428.89,239.11Z"/><path class="f" d="M43,234.1c.37,1,41.52,11.39,111.26,37.16,19.49-44.34,35-83.62,47.1-116.54-55.68-24.59-119.35-55.53-188.53-94C-33.54,314,60.49,460.3,60.49,460.3h0C18.68,342.08,43,234.05,43,234.1Z"/><path class="g" d="M459,412.59c-117.91,41.92-225.66,17.51-225.61,17.49,1-.36,11.37-41.65,37.09-111.61-44.21-19.53-83.38-35.07-116.21-47.21-24.53,55.83-55.39,119.67-93.81,189,252.69,46.55,398.61-47.74,398.61-47.74l-.06,0A.17.17,0,0,0,459,412.59Z"/><path class="h" d="M233.42,430.08S341.12,454.51,459,412.59a.17.17,0,0,1,0-.07c-69.18-38.52-132.85-69.45-188.53-94C244.79,388.43,234.37,429.72,233.42,430.08Z"/><path class="h" d="M238.48,43.15c-.95.36-11.37,41.64-37.08,111.57,44.21,19.54,83.39,35.08,116.21,47.21,24.53-55.81,55.39-119.65,93.8-189l.08.14c0-.06,0-.11-.05-.16C158.75-33.63,12.83,60.65,12.83,60.65l0,0v0C130.78,18.73,238.52,43.13,238.48,43.15Z"/><path class="i" d="M317.61,201.93c69.75,25.78,110.91,36.22,111.28,37.18,0,0,24.33-107.89-17.4-226l-.08-.14C373,82.28,342.14,146.12,317.61,201.93Z"/><path class="g" d="M238.48,43.15S130.78,18.73,12.87,60.64v0c69.18,38.52,132.85,69.46,188.53,94.05C227.11,84.79,237.53,43.51,238.48,43.15Z"/></g><g class="j"><path d="M196,231.87,345.54,398.65c7,7.92,19.1,7.92,26.55.93l25.16-25.15a18.19,18.19,0,0,0-.93-26.56L229.54,198.33A64.63,64.63,0,0,0,216,127.05a63.66,63.66,0,0,0-61.49-16.77,3.29,3.29,0,0,0-1.87,5.59l38.67,38.67-39.13,39.13L113.54,155a3.29,3.29,0,0,0-5.59,1.86,63.66,63.66,0,0,0,16.77,61.49A64.78,64.78,0,0,0,196,231.87Z"/><path d="M209,269.61l41,45.65-80.59,80.59a30.29,30.29,0,0,1-33.55,6.53,30,30,0,0,1-16.3-16.31c-4.66-11.18-2.8-24.69,6.52-33.54Z"/><polygon points="406.86 139.17 366.11 190.88 350.44 195.58 347.31 192.97 302.38 237.89 283.06 220.66 329.02 174.69 325.89 171.55 331.11 155.88 382.3 115.14 406.86 139.17"/></g><path class="e" d="M176,211.87,325.54,378.65c7,7.92,19.1,7.92,26.55.93l25.16-25.15a18.19,18.19,0,0,0-.93-26.56L209.54,178.33A64.63,64.63,0,0,0,196,107.05a63.66,63.66,0,0,0-61.49-16.77,3.29,3.29,0,0,0-1.87,5.59l38.67,38.67-39.13,39.13L93.54,135A3.29,3.29,0,0,0,88,136.87a63.66,63.66,0,0,0,16.77,61.49A64.78,64.78,0,0,0,176,211.87Z"/><path class="e" d="M189,249.61l41,45.65-80.59,80.59a30.29,30.29,0,0,1-33.55,6.53,30,30,0,0,1-16.3-16.31c-4.66-11.18-2.8-24.69,6.52-33.54Z"/><polygon class="e" points="386.86 119.17 346.11 170.88 330.44 175.58 327.31 172.97 282.38 217.89 263.06 200.66 309.02 154.69 305.89 151.55 311.11 135.88 362.3 95.14 386.86 119.17"/></g></svg>