<svg xmlns="http://www.w3.org/2000/svg" viewBox="0 0 471.9 473.2"><defs><style>.a{isolation:isolate;}.b{fill:#ff5a00;}.c{opacity:0.6;}.c,.j{mix-blend-mode:multiply;}.d{fill:#706f6f;}.e{fill:#fff;}.f{fill:#878787;}.g{fill:#c6c6c6;}.h{fill:#dadada;}.i{fill:#f6f6f6;}.j{opacity:0.2;}</style></defs><g class="a"><path class="b" d="M411.49,13.07c0-.06,0-.11-.05-.16C158.75-33.63,12.83,60.65,12.83,60.65l0,0c-46.38,253.2,47.52,399.46,47.62,399.62h0c252.69,46.55,398.61-47.74,398.61-47.74l-.06,0C504.65,163.47,414.53,17.89,411.49,13.07Z"/><g class="c"><path class="d" d="M43,234.1s-24.36,108,17.45,226.19h0c38.42-69.36,69.28-133.2,93.81-189C84.56,245.49,43.41,235.05,43,234.1Z"/><path class="e" d="M428.89,239.11c-.37-1-41.53-11.4-111.28-37.18-19.49,44.34-35,83.62-47.1,116.54,55.68,24.6,119.35,55.53,188.53,94,45.61-249-44.51-394.63-47.55-399.45C453.22,131.22,428.9,239.15,428.89,239.11Z"/><path class="f" d="M43,234.1c.37,1,41.52,11.39,111.26,37.16,19.49-44.34,35-83.62,47.1-116.54-55.67-24.59-119.35-55.53-188.53-94C-33.54,314,60.49,460.3,60.49,460.3h0C18.68,342.08,43,234.05,43,234.1Z"/><path class="g" d="M459,412.59c-117.91,41.92-225.66,17.51-225.61,17.49,1-.36,11.37-41.65,37.09-111.61-44.21-19.53-83.38-35.07-116.21-47.21-24.53,55.83-55.39,119.67-93.81,189,252.69,46.55,398.61-47.74,398.61-47.74l-.06,0A.17.17,0,0,0,459,412.59Z"/><path class="h" d="M233.42,430.08S341.12,454.51,459,412.59a.17.17,0,0,1,0-.07c-69.18-38.52-132.85-69.45-188.53-94C244.79,388.43,234.37,429.72,233.42,430.08Z"/><path class="h" d="M238.48,43.15c-.95.36-11.37,41.64-37.08,111.57,44.21,19.54,83.39,35.08,116.21,47.21,24.53-55.81,55.39-119.65,93.8-189l.08.14c0-.06,0-.11-.05-.16C158.75-33.63,12.83,60.65,12.83,60.65l0,0v0C130.78,18.73,238.52,43.13,238.48,43.15Z"/><path class="i" d="M317.61,201.93c69.75,25.78,110.91,36.22,111.28,37.18,0,0,24.33-107.89-17.4-226l-.08-.14C373,82.28,342.14,146.12,317.61,201.93Z"/><path class="g" d="M238.48,43.15S130.78,18.73,12.87,60.64v0c69.18,38.52,132.86,69.46,188.53,94.05C227.11,84.79,237.53,43.51,238.48,43.15Z"/></g><g class="j"><path d="M212.11,237.51a68.21,68.21,0,0,0,16.5,15.21,48.85,48.85,0,0,0,24.81,8.3c.59,0,1.1.08,1.7.08a20.26,20.26,0,0,0,2.06-.07c33.27-1.43,59.13-40,59.25-72.44a61.13,61.13,0,1,0-122.25-.44c-.06,16.41,6.38,34.46,17.12,48.4A8.88,8.88,0,0,0,212.11,237.51Z"/><path d="M302,255.36C289.93,267,274.91,275,258.15,275.78c-1.06.09-2,.1-3.08.1-.63,0-1.22,0-1.82-.07a63.89,63.89,0,0,1-32.67-10.68A80.92,80.92,0,0,1,208.09,255c-48.4,18.75-83.06,65.69-83.25,120.45a7.36,7.36,0,0,0,7.36,7.42l244.8.88h.15a7.36,7.36,0,0,0,7.42-7.36,9.54,9.54,0,0,0-.14-1.48C383.94,320.87,349.79,274.3,302,255.36Z"/></g><path class="e" d="M192.11,217.51a68.21,68.21,0,0,0,16.5,15.21,48.85,48.85,0,0,0,24.81,8.3c.59,0,1.1.08,1.7.08a20.26,20.26,0,0,0,2.06-.07c33.27-1.43,59.13-40,59.25-72.44a61.13,61.13,0,1,0-122.25-.44c-.06,16.41,6.38,34.46,17.12,48.4A8.88,8.88,0,0,0,192.11,217.51Z"/><path class="e" d="M282,235.36C269.93,247,254.91,255,238.15,255.78c-1.06.09-2,.1-3.08.1-.63,0-1.22,0-1.82-.07a63.89,63.89,0,0,1-32.67-10.68A80.92,80.92,0,0,1,188.09,235c-48.4,18.75-83.06,65.69-83.25,120.45a7.36,7.36,0,0,0,7.36,7.42l244.8.88h.15a7.36,7.36,0,0,0,7.42-7.36,9.54,9.54,0,0,0-.14-1.48C363.94,300.87,329.79,254.3,282,235.36Z"/></g></svg>