<svg xmlns="http://www.w3.org/2000/svg" viewBox="0 0 471.9 473.2"><defs><style>.a{isolation:isolate;}.b{fill:#ff5a00;}.c{opacity:0.6;}.c,.j{mix-blend-mode:multiply;}.d{fill:#706f6f;}.e{fill:#fff;}.f{fill:#878787;}.g{fill:#c6c6c6;}.h{fill:#dadada;}.i{fill:#f6f6f6;}.j{opacity:0.2;}</style></defs><g class="a"><path class="b" d="M411.49,13.07c0-.06,0-.11-.05-.16C158.75-33.63,12.83,60.65,12.83,60.65l0,0c-46.38,253.2,47.52,399.46,47.62,399.62h0c252.69,46.55,398.61-47.74,398.61-47.74l-.06,0C504.65,163.47,414.53,17.89,411.49,13.07Z"/><g class="c"><path class="d" d="M43,234.1s-24.36,108,17.45,226.19h0c38.42-69.36,69.28-133.2,93.81-189C84.56,245.49,43.41,235.05,43,234.1Z"/><path class="e" d="M428.89,239.11c-.37-1-41.53-11.4-111.28-37.18-19.49,44.34-35,83.62-47.1,116.54,55.68,24.6,119.35,55.53,188.53,94,45.61-249-44.51-394.63-47.55-399.45C453.22,131.22,428.9,239.15,428.89,239.11Z"/><path class="f" d="M43,234.1c.37,1,41.52,11.39,111.26,37.16,19.49-44.34,35-83.62,47.1-116.54-55.68-24.59-119.35-55.53-188.53-94C-33.54,314,60.49,460.3,60.49,460.3h0C18.68,342.08,43,234.05,43,234.1Z"/><path class="g" d="M459,412.59c-117.91,41.92-225.66,17.51-225.61,17.49,1-.36,11.37-41.65,37.09-111.61-44.21-19.53-83.38-35.07-116.21-47.21-24.53,55.83-55.39,119.67-93.81,189,252.69,46.55,398.61-47.74,398.61-47.74l-.06,0A.17.17,0,0,0,459,412.59Z"/><path class="h" d="M233.42,430.08S341.12,454.51,459,412.59a.17.17,0,0,1,0-.07c-69.18-38.52-132.85-69.45-188.53-94C244.79,388.43,234.37,429.72,233.42,430.08Z"/><path class="h" d="M238.48,43.15c-.95.36-11.37,41.64-37.08,111.57,44.21,19.54,83.39,35.08,116.21,47.21,24.53-55.81,55.39-119.65,93.8-189l.08.14c0-.06,0-.11-.05-.16C158.75-33.63,12.83,60.65,12.83,60.65l0,0v0C130.78,18.73,238.52,43.13,238.48,43.15Z"/><path class="i" d="M317.61,201.93c69.75,25.78,110.91,36.22,111.28,37.18,0,0,24.33-107.89-17.4-226l-.08-.14C373,82.28,342.14,146.12,317.61,201.93Z"/><path class="g" d="M238.48,43.15S130.78,18.73,12.87,60.64v0c69.18,38.52,132.85,69.46,188.53,94.05C227.11,84.79,237.53,43.51,238.48,43.15Z"/></g><g class="j"><path d="M401.87,345.35,272.09,120.69a18.66,18.66,0,0,0-32.28,0L110,345.35c-7.17,12.39,1.63,28,16,28H385.57A18.67,18.67,0,0,0,401.87,345.35Zm-150-155.86a16.88,16.88,0,0,1,19.23,9.13,14.32,14.32,0,0,1,1.31,8.15c-.65,8.15-1,16.3-1.31,24.78-.65,12.72-1.63,25.76-2.28,38.48-.32,3.91-.32,7.82-.65,12.06a12.32,12.32,0,0,1-12.39,12.07,12.48,12.48,0,0,1-12.39-11.74c-1-19.89-2.28-39.78-3.26-59.67-.33-5.22-.65-10.76-1-16C239.16,198.94,244.38,191.44,251.88,189.49Zm4.24,149.34a16.43,16.43,0,0,1-16.31-16.63,16.7,16.7,0,0,1,16.63-16.63c9.13,0,16.31,7.5,16.31,17C272.42,331.33,264.92,338.83,256.12,338.83Z"/></g><path class="e" d="M381.87,325.35,252.09,100.69a18.66,18.66,0,0,0-32.28,0L90,325.35c-7.17,12.39,1.63,28,16,28H365.57A18.67,18.67,0,0,0,381.87,325.35Zm-150-155.86a16.88,16.88,0,0,1,19.23,9.13,14.32,14.32,0,0,1,1.31,8.15c-.65,8.15-1,16.3-1.31,24.78-.65,12.72-1.63,25.76-2.28,38.48-.32,3.91-.32,7.82-.65,12.06a12.32,12.32,0,0,1-12.39,12.07,12.48,12.48,0,0,1-12.39-11.74c-1-19.89-2.28-39.78-3.26-59.67-.33-5.22-.65-10.76-1-16C219.16,178.94,224.38,171.44,231.88,169.49Zm4.24,149.34a16.43,16.43,0,0,1-16.31-16.63,16.7,16.7,0,0,1,16.63-16.63c9.13,0,16.31,7.5,16.31,17C252.42,311.33,244.92,318.83,236.12,318.83Z"/></g></svg>