<svg xmlns="http://www.w3.org/2000/svg" viewBox="0 0 471.9 473.2"><defs><style>.a{isolation:isolate;}.b{fill:#86a1af;}.c{opacity:0.6;}.c,.j{mix-blend-mode:multiply;}.d{fill:#706f6f;}.e{fill:#fff;}.f{fill:#878787;}.g{fill:#c6c6c6;}.h{fill:#dadada;}.i{fill:#f6f6f6;}.j{opacity:0.2;}</style></defs><g class="a"><path class="b" d="M411.49,13.07c0-.06,0-.11-.05-.16C158.75-33.63,12.83,60.65,12.83,60.65l0,0c-46.38,253.2,47.52,399.46,47.62,399.62h0c252.69,46.55,398.61-47.74,398.61-47.74l-.06,0C504.65,163.47,414.53,17.89,411.49,13.07Z"/><g class="c"><path class="d" d="M43,234.1s-24.36,108,17.45,226.19h0c38.42-69.36,69.28-133.2,93.81-189C84.56,245.49,43.41,235.05,43,234.1Z"/><path class="e" d="M428.89,239.11c-.37-1-41.53-11.4-111.28-37.18-19.49,44.34-35,83.62-47.1,116.54,55.68,24.6,119.35,55.53,188.53,94,45.61-249-44.51-394.63-47.55-399.45C453.22,131.22,428.9,239.15,428.89,239.11Z"/><path class="f" d="M43,234.1c.37,1,41.52,11.39,111.26,37.16,19.49-44.34,35-83.62,47.1-116.54-55.68-24.59-119.35-55.53-188.53-94C-33.54,314,60.49,460.3,60.49,460.3h0C18.68,342.08,43,234.05,43,234.1Z"/><path class="g" d="M459,412.59c-117.91,41.92-225.66,17.51-225.61,17.49,1-.36,11.37-41.65,37.09-111.61-44.21-19.53-83.38-35.07-116.21-47.21-24.53,55.83-55.39,119.67-93.81,189,252.69,46.55,398.61-47.74,398.61-47.74l-.06,0A.17.17,0,0,0,459,412.59Z"/><path class="h" d="M233.42,430.08S341.12,454.51,459,412.59a.17.17,0,0,1,0-.07c-69.18-38.52-132.85-69.45-188.53-94C244.79,388.43,234.37,429.72,233.42,430.08Z"/><path class="h" d="M238.48,43.15c-.95.36-11.37,41.64-37.08,111.57,44.21,19.54,83.39,35.08,116.21,47.21,24.53-55.81,55.39-119.65,93.8-189l.08.14c0-.06,0-.11-.05-.16C158.75-33.63,12.83,60.65,12.83,60.65l0,0v0C130.78,18.73,238.52,43.13,238.48,43.15Z"/><path class="i" d="M317.61,201.93c69.75,25.78,110.91,36.22,111.28,37.18,0,0,24.33-107.89-17.4-226l-.08-.14C373,82.28,342.14,146.12,317.61,201.93Z"/><path class="g" d="M238.48,43.15S130.78,18.73,12.87,60.64v0c69.18,38.52,132.85,69.46,188.53,94.05C227.11,84.79,237.53,43.51,238.48,43.15Z"/></g><g class="j"><rect x="148.75" y="356.43" width="214.98" height="48.37"/></g><rect class="e" x="128.75" y="336.43" width="214.98" height="48.37"/><g class="j"><polygon points="222.31 289.19 222.31 289.19 247.51 314.39 256.24 323.12 256.24 323.12 256.24 323.12 286.81 292.55 356.67 223.02 322.75 188.76 280.09 231.42 280.09 128.97 280.09 106.8 232.05 106.8 232.05 128.97 232.05 231.08 220.3 219.32 189.73 188.76 155.8 222.68 186.37 253.25 222.31 289.19"/></g><polygon class="e" points="202.31 269.19 202.31 269.19 227.51 294.39 236.24 303.12 236.24 303.12 236.24 303.12 266.81 272.55 336.67 203.02 302.75 168.76 260.09 211.42 260.09 108.97 260.09 86.8 212.05 86.8 212.05 108.97 212.05 211.08 200.3 199.32 169.73 168.76 135.8 202.68 166.37 233.25 202.31 269.19"/></g></svg>